<svg width="145" height="45" viewBox="0 0 145 45" fill="none" xmlns="http://www.w3.org/2000/svg">
<path d="M1.021 0.449999H8.5735C10.5345 0.449999 12.2658 0.847499 13.7675 1.6425C15.2692 2.41983 16.4352 3.51517 17.2655 4.9285C18.0958 6.32417 18.511 7.923 18.511 9.725C18.511 11.527 18.0958 13.1347 17.2655 14.548C16.4352 15.9437 15.2692 17.039 13.7675 17.834C12.2658 18.6113 10.5345 19 8.5735 19H1.021V0.449999ZM8.4675 17.304C10.0928 17.304 11.515 16.986 12.734 16.35C13.953 15.6963 14.8982 14.8042 15.5695 13.6735C16.2408 12.5252 16.5765 11.209 16.5765 9.725C16.5765 8.241 16.2408 6.93367 15.5695 5.803C14.8982 4.65467 13.953 3.7625 12.734 3.1265C11.515 2.47283 10.0928 2.146 8.4675 2.146H2.982V17.304H8.4675ZM23.9746 0.449999H25.9356V19H23.9746V0.449999ZM46.0956 9.725H47.9771V16.8005C47.1115 17.5602 46.0868 18.1432 44.9031 18.5495C43.7195 18.9558 42.474 19.159 41.1666 19.159C39.3116 19.159 37.6421 18.7527 36.1581 17.94C34.6741 17.1273 33.5081 16.0055 32.6601 14.5745C31.8121 13.1258 31.3881 11.5093 31.3881 9.725C31.3881 7.94067 31.8121 6.333 32.6601 4.902C33.5081 3.45333 34.6741 2.32267 36.1581 1.51C37.6421 0.697333 39.3205 0.290999 41.1931 0.290999C42.6065 0.290999 43.905 0.520666 45.0886 0.98C46.2723 1.42167 47.2705 2.08417 48.0831 2.9675L46.8641 4.213C45.3978 2.76433 43.534 2.04 41.2726 2.04C39.771 2.04 38.4106 2.37567 37.1916 3.047C35.9903 3.70067 35.0451 4.61933 34.3561 5.803C33.6671 6.969 33.3226 8.27633 33.3226 9.725C33.3226 11.1737 33.6671 12.481 34.3561 13.647C35.0451 14.813 35.9903 15.7317 37.1916 16.403C38.393 17.0743 39.7445 17.41 41.2461 17.41C43.1541 17.41 44.7706 16.933 46.0956 15.979V9.725ZM54.5872 0.449999H56.5482V19H54.5872V0.449999ZM67.2478 2.146H60.7288V0.449999H75.7278V2.146H69.2088V19H67.2478V2.146ZM90.6225 14.0445H80.2875L78.0615 19H76.021L84.501 0.449999H86.4355L94.9155 19H92.8485L90.6225 14.0445ZM89.907 12.4545L85.455 2.4905L81.003 12.4545H89.907ZM99.0441 0.449999H101.005V17.304H111.393V19H99.0441V0.449999ZM8.229 25.45C9.872 25.45 11.2942 25.7238 12.4955 26.2715C13.7145 26.8192 14.6508 27.5965 15.3045 28.6035C15.9582 29.6105 16.285 30.803 16.285 32.181C16.285 33.5413 15.9582 34.7338 15.3045 35.7585C14.6508 36.7655 13.7145 37.5428 12.4955 38.0905C11.2942 38.6205 9.872 38.8855 8.229 38.8855H4.4925V44H0.1995V25.45H8.229ZM7.9905 35.3875C9.28017 35.3875 10.2607 35.1137 10.932 34.566C11.6033 34.0007 11.939 33.2057 11.939 32.181C11.939 31.1387 11.6033 30.3437 10.932 29.796C10.2607 29.2307 9.28017 28.948 7.9905 28.948H4.4925V35.3875H7.9905ZM30.3739 44L26.7964 38.8325H26.5844H22.8479V44H18.5549V25.45H26.5844C28.2274 25.45 29.6496 25.7238 30.8509 26.2715C32.0699 26.8192 33.0062 27.5965 33.6599 28.6035C34.3136 29.6105 34.6404 30.803 34.6404 32.181C34.6404 33.559 34.3047 34.7515 33.6334 35.7585C32.9797 36.7478 32.0434 37.5075 30.8244 38.0375L34.9849 44H30.3739ZM30.2944 32.181C30.2944 31.1387 29.9587 30.3437 29.2874 29.796C28.6161 29.2307 27.6356 28.948 26.3459 28.948H22.8479V35.414H26.3459C27.6356 35.414 28.6161 35.1313 29.2874 34.566C29.9587 34.0007 30.2944 33.2057 30.2944 32.181ZM46.2302 44.318C44.3045 44.318 42.5644 43.9028 41.0097 43.0725C39.4727 42.2422 38.2625 41.1027 37.3792 39.654C36.5135 38.1877 36.0807 36.5447 36.0807 34.725C36.0807 32.9053 36.5135 31.2712 37.3792 29.8225C38.2625 28.3562 39.4727 27.2078 41.0097 26.3775C42.5644 25.5472 44.3045 25.132 46.2302 25.132C48.1559 25.132 49.8872 25.5472 51.4242 26.3775C52.9612 27.2078 54.1714 28.3562 55.0547 29.8225C55.938 31.2712 56.3797 32.9053 56.3797 34.725C56.3797 36.5447 55.938 38.1877 55.0547 39.654C54.1714 41.1027 52.9612 42.2422 51.4242 43.0725C49.8872 43.9028 48.1559 44.318 46.2302 44.318ZM46.2302 40.661C47.3255 40.661 48.3149 40.4137 49.1982 39.919C50.0815 39.4067 50.7705 38.7 51.2652 37.799C51.7775 36.898 52.0337 35.8733 52.0337 34.725C52.0337 33.5767 51.7775 32.552 51.2652 31.651C50.7705 30.75 50.0815 30.0522 49.1982 29.5575C48.3149 29.0452 47.3255 28.789 46.2302 28.789C45.1349 28.789 44.1455 29.0452 43.2622 29.5575C42.3789 30.0522 41.681 30.75 41.1687 31.651C40.674 32.552 40.4267 33.5767 40.4267 34.725C40.4267 35.8733 40.674 36.898 41.1687 37.799C41.681 38.7 42.3789 39.4067 43.2622 39.919C44.1455 40.4137 45.1349 40.661 46.2302 40.661ZM71.3456 34.4335H75.2676V41.9595C74.2606 42.7192 73.0946 43.3022 71.7696 43.7085C70.4446 44.1148 69.1108 44.318 67.7681 44.318C65.8424 44.318 64.1111 43.9117 62.5741 43.099C61.0371 42.2687 59.8269 41.1292 58.9436 39.6805C58.0779 38.2142 57.6451 36.5623 57.6451 34.725C57.6451 32.8877 58.0779 31.2447 58.9436 29.796C59.8269 28.3297 61.0459 27.1902 62.6006 26.3775C64.1553 25.5472 65.9043 25.132 67.8476 25.132C69.4729 25.132 70.9481 25.4058 72.2731 25.9535C73.5981 26.5012 74.7111 27.2962 75.6121 28.3385L72.8561 30.8825C71.5311 29.4868 69.9323 28.789 68.0596 28.789C66.8759 28.789 65.8248 29.0363 64.9061 29.531C63.9874 30.0257 63.2719 30.7235 62.7596 31.6245C62.2473 32.5255 61.9911 33.559 61.9911 34.725C61.9911 35.8733 62.2473 36.898 62.7596 37.799C63.2719 38.7 63.9786 39.4067 64.8796 39.919C65.7983 40.4137 66.8406 40.661 68.0066 40.661C69.2433 40.661 70.3563 40.396 71.3456 39.866V34.4335ZM90.2794 44L86.7019 38.8325H86.4899H82.7534V44H78.4604V25.45H86.4899C88.1329 25.45 89.5551 25.7238 90.7564 26.2715C91.9754 26.8192 92.9118 27.5965 93.5654 28.6035C94.2191 29.6105 94.5459 30.803 94.5459 32.181C94.5459 33.559 94.2103 34.7515 93.5389 35.7585C92.8853 36.7478 91.9489 37.5075 90.7299 38.0375L94.8904 44H90.2794ZM90.1999 32.181C90.1999 31.1387 89.8643 30.3437 89.1929 29.796C88.5216 29.2307 87.5411 28.948 86.2514 28.948H82.7534V35.414H86.2514C87.5411 35.414 88.5216 35.1313 89.1929 34.566C89.8643 34.0007 90.1999 33.2057 90.1999 32.181ZM111.515 40.555V44H97.1522V25.45H111.171V28.895H101.419V32.923H110.031V36.262H101.419V40.555H111.515ZM120.231 44.318C118.765 44.318 117.343 44.1237 115.965 43.735C114.604 43.3287 113.509 42.8075 112.679 42.1715L114.136 38.9385C114.931 39.5215 115.876 39.9897 116.972 40.343C118.067 40.6963 119.162 40.873 120.258 40.873C121.477 40.873 122.378 40.6963 122.961 40.343C123.544 39.972 123.835 39.4862 123.835 38.8855C123.835 38.4438 123.658 38.0817 123.305 37.799C122.969 37.4987 122.528 37.2602 121.98 37.0835C121.45 36.9068 120.726 36.7125 119.807 36.5005C118.394 36.1648 117.237 35.8292 116.336 35.4935C115.435 35.1578 114.657 34.619 114.004 33.877C113.368 33.135 113.05 32.1457 113.05 30.909C113.05 29.8313 113.341 28.8597 113.924 27.994C114.507 27.1107 115.382 26.4128 116.548 25.9005C117.731 25.3882 119.171 25.132 120.867 25.132C122.051 25.132 123.208 25.2733 124.339 25.556C125.469 25.8387 126.459 26.245 127.307 26.775L125.982 30.0345C124.268 29.0628 122.554 28.577 120.841 28.577C119.639 28.577 118.747 28.7713 118.164 29.16C117.599 29.5487 117.316 30.061 117.316 30.697C117.316 31.333 117.643 31.81 118.297 32.128C118.968 32.4283 119.984 32.7287 121.344 33.029C122.757 33.3647 123.915 33.7003 124.816 34.036C125.717 34.3717 126.485 34.9017 127.121 35.626C127.775 36.3503 128.102 37.3308 128.102 38.5675C128.102 39.6275 127.801 40.5992 127.201 41.4825C126.618 42.3482 125.734 43.0372 124.551 43.5495C123.367 44.0618 121.927 44.318 120.231 44.318ZM136.335 44.318C134.869 44.318 133.446 44.1237 132.068 43.735C130.708 43.3287 129.613 42.8075 128.782 42.1715L130.24 38.9385C131.035 39.5215 131.98 39.9897 133.075 40.343C134.171 40.6963 135.266 40.873 136.361 40.873C137.58 40.873 138.481 40.6963 139.064 40.343C139.647 39.972 139.939 39.4862 139.939 38.8855C139.939 38.4438 139.762 38.0817 139.409 37.799C139.073 37.4987 138.632 37.2602 138.084 37.0835C137.554 36.9068 136.83 36.7125 135.911 36.5005C134.498 36.1648 133.34 35.8292 132.439 35.4935C131.538 35.1578 130.761 34.619 130.107 33.877C129.471 33.135 129.153 32.1457 129.153 30.909C129.153 29.8313 129.445 28.8597 130.028 27.994C130.611 27.1107 131.485 26.4128 132.651 25.9005C133.835 25.3882 135.275 25.132 136.971 25.132C138.155 25.132 139.312 25.2733 140.442 25.556C141.573 25.8387 142.562 26.245 143.41 26.775L142.085 30.0345C140.372 29.0628 138.658 28.577 136.944 28.577C135.743 28.577 134.851 28.7713 134.268 29.16C133.703 29.5487 133.42 30.061 133.42 30.697C133.42 31.333 133.747 31.81 134.4 32.128C135.072 32.4283 136.088 32.7287 137.448 33.029C138.861 33.3647 140.018 33.7003 140.919 34.036C141.82 34.3717 142.589 34.9017 143.225 35.626C143.879 36.3503 144.205 37.3308 144.205 38.5675C144.205 39.6275 143.905 40.5992 143.304 41.4825C142.721 42.3482 141.838 43.0372 140.654 43.5495C139.471 44.0618 138.031 44.318 136.335 44.318Z" fill="#262626"/>
</svg>
