<svg width="224" height="66" viewBox="0 0 224 66" fill="none" xmlns="http://www.w3.org/2000/svg">
<path d="M80.021 11.45H87.5735C89.5345 11.45 91.2658 11.8475 92.7675 12.6425C94.2692 13.4198 95.4352 14.5152 96.2655 15.9285C97.0958 17.3242 97.511 18.923 97.511 20.725C97.511 22.527 97.0958 24.1347 96.2655 25.548C95.4352 26.9437 94.2692 28.039 92.7675 28.834C91.2658 29.6113 89.5345 30 87.5735 30H80.021V11.45ZM87.4675 28.304C89.0928 28.304 90.515 27.986 91.734 27.35C92.953 26.6963 93.8982 25.8042 94.5695 24.6735C95.2408 23.5252 95.5765 22.209 95.5765 20.725C95.5765 19.241 95.2408 17.9337 94.5695 16.803C93.8982 15.6547 92.953 14.7625 91.734 14.1265C90.515 13.4728 89.0928 13.146 87.4675 13.146H81.982V28.304H87.4675ZM102.975 11.45H104.936V30H102.975V11.45ZM125.096 20.725H126.977V27.8005C126.111 28.5602 125.087 29.1432 123.903 29.5495C122.719 29.9558 121.474 30.159 120.167 30.159C118.312 30.159 116.642 29.7527 115.158 28.94C113.674 28.1273 112.508 27.0055 111.66 25.5745C110.812 24.1258 110.388 22.5093 110.388 20.725C110.388 18.9407 110.812 17.333 111.66 15.902C112.508 14.4533 113.674 13.3227 115.158 12.51C116.642 11.6973 118.32 11.291 120.193 11.291C121.606 11.291 122.905 11.5207 124.089 11.98C125.272 12.4217 126.27 13.0842 127.083 13.9675L125.864 15.213C124.398 13.7643 122.534 13.04 120.273 13.04C118.771 13.04 117.411 13.3757 116.192 14.047C114.99 14.7007 114.045 15.6193 113.356 16.803C112.667 17.969 112.323 19.2763 112.323 20.725C112.323 22.1737 112.667 23.481 113.356 24.647C114.045 25.813 114.99 26.7317 116.192 27.403C117.393 28.0743 118.744 28.41 120.246 28.41C122.154 28.41 123.771 27.933 125.096 26.979V20.725ZM133.587 11.45H135.548V30H133.587V11.45ZM146.248 13.146H139.729V11.45H154.728V13.146H148.209V30H146.248V13.146ZM169.622 25.0445H159.287L157.061 30H155.021L163.501 11.45H165.435L173.915 30H171.848L169.622 25.0445ZM168.907 23.4545L164.455 13.4905L160.003 23.4545H168.907ZM178.044 11.45H180.005V28.304H190.393V30H178.044V11.45ZM87.229 36.45C88.872 36.45 90.2942 36.7238 91.4955 37.2715C92.7145 37.8192 93.6508 38.5965 94.3045 39.6035C94.9582 40.6105 95.285 41.803 95.285 43.181C95.285 44.5413 94.9582 45.7338 94.3045 46.7585C93.6508 47.7655 92.7145 48.5428 91.4955 49.0905C90.2942 49.6205 88.872 49.8855 87.229 49.8855H83.4925V55H79.1995V36.45H87.229ZM86.9905 46.3875C88.2802 46.3875 89.2607 46.1137 89.932 45.566C90.6033 45.0007 90.939 44.2057 90.939 43.181C90.939 42.1387 90.6033 41.3437 89.932 40.796C89.2607 40.2307 88.2802 39.948 86.9905 39.948H83.4925V46.3875H86.9905ZM109.374 55L105.796 49.8325H105.584H101.848V55H97.5549V36.45H105.584C107.227 36.45 108.65 36.7238 109.851 37.2715C111.07 37.8192 112.006 38.5965 112.66 39.6035C113.314 40.6105 113.64 41.803 113.64 43.181C113.64 44.559 113.305 45.7515 112.633 46.7585C111.98 47.7478 111.043 48.5075 109.824 49.0375L113.985 55H109.374ZM109.294 43.181C109.294 42.1387 108.959 41.3437 108.287 40.796C107.616 40.2307 106.636 39.948 105.346 39.948H101.848V46.414H105.346C106.636 46.414 107.616 46.1313 108.287 45.566C108.959 45.0007 109.294 44.2057 109.294 43.181ZM125.23 55.318C123.305 55.318 121.564 54.9028 120.01 54.0725C118.473 53.2422 117.263 52.1027 116.379 50.654C115.514 49.1877 115.081 47.5447 115.081 45.725C115.081 43.9053 115.514 42.2712 116.379 40.8225C117.263 39.3562 118.473 38.2078 120.01 37.3775C121.564 36.5472 123.305 36.132 125.23 36.132C127.156 36.132 128.887 36.5472 130.424 37.3775C131.961 38.2078 133.171 39.3562 134.055 40.8225C134.938 42.2712 135.38 43.9053 135.38 45.725C135.38 47.5447 134.938 49.1877 134.055 50.654C133.171 52.1027 131.961 53.2422 130.424 54.0725C128.887 54.9028 127.156 55.318 125.23 55.318ZM125.23 51.661C126.326 51.661 127.315 51.4137 128.198 50.919C129.082 50.4067 129.771 49.7 130.265 48.799C130.778 47.898 131.034 46.8733 131.034 45.725C131.034 44.5767 130.778 43.552 130.265 42.651C129.771 41.75 129.082 41.0522 128.198 40.5575C127.315 40.0452 126.326 39.789 125.23 39.789C124.135 39.789 123.146 40.0452 122.262 40.5575C121.379 41.0522 120.681 41.75 120.169 42.651C119.674 43.552 119.427 44.5767 119.427 45.725C119.427 46.8733 119.674 47.898 120.169 48.799C120.681 49.7 121.379 50.4067 122.262 50.919C123.146 51.4137 124.135 51.661 125.23 51.661ZM150.346 45.4335H154.268V52.9595C153.261 53.7192 152.095 54.3022 150.77 54.7085C149.445 55.1148 148.111 55.318 146.768 55.318C144.842 55.318 143.111 54.9117 141.574 54.099C140.037 53.2687 138.827 52.1292 137.944 50.6805C137.078 49.2142 136.645 47.5623 136.645 45.725C136.645 43.8877 137.078 42.2447 137.944 40.796C138.827 39.3297 140.046 38.1902 141.601 37.3775C143.155 36.5472 144.904 36.132 146.848 36.132C148.473 36.132 149.948 36.4058 151.273 36.9535C152.598 37.5012 153.711 38.2962 154.612 39.3385L151.856 41.8825C150.531 40.4868 148.932 39.789 147.06 39.789C145.876 39.789 144.825 40.0363 143.906 40.531C142.987 41.0257 142.272 41.7235 141.76 42.6245C141.247 43.5255 140.991 44.559 140.991 45.725C140.991 46.8733 141.247 47.898 141.76 48.799C142.272 49.7 142.979 50.4067 143.88 50.919C144.798 51.4137 145.841 51.661 147.007 51.661C148.243 51.661 149.356 51.396 150.346 50.866V45.4335ZM169.279 55L165.702 49.8325H165.49H161.753V55H157.46V36.45H165.49C167.133 36.45 168.555 36.7238 169.756 37.2715C170.975 37.8192 171.912 38.5965 172.565 39.6035C173.219 40.6105 173.546 41.803 173.546 43.181C173.546 44.559 173.21 45.7515 172.539 46.7585C171.885 47.7478 170.949 48.5075 169.73 49.0375L173.89 55H169.279ZM169.2 43.181C169.2 42.1387 168.864 41.3437 168.193 40.796C167.522 40.2307 166.541 39.948 165.251 39.948H161.753V46.414H165.251C166.541 46.414 167.522 46.1313 168.193 45.566C168.864 45.0007 169.2 44.2057 169.2 43.181ZM190.515 51.555V55H176.152V36.45H190.171V39.895H180.419V43.923H189.031V47.262H180.419V51.555H190.515ZM199.231 55.318C197.765 55.318 196.343 55.1237 194.965 54.735C193.604 54.3287 192.509 53.8075 191.679 53.1715L193.136 49.9385C193.931 50.5215 194.876 50.9897 195.972 51.343C197.067 51.6963 198.162 51.873 199.258 51.873C200.477 51.873 201.378 51.6963 201.961 51.343C202.544 50.972 202.835 50.4862 202.835 49.8855C202.835 49.4438 202.658 49.0817 202.305 48.799C201.969 48.4987 201.528 48.2602 200.98 48.0835C200.45 47.9068 199.726 47.7125 198.807 47.5005C197.394 47.1648 196.237 46.8292 195.336 46.4935C194.435 46.1578 193.657 45.619 193.004 44.877C192.368 44.135 192.05 43.1457 192.05 41.909C192.05 40.8313 192.341 39.8597 192.924 38.994C193.507 38.1107 194.382 37.4128 195.548 36.9005C196.731 36.3882 198.171 36.132 199.867 36.132C201.051 36.132 202.208 36.2733 203.339 36.556C204.469 36.8387 205.459 37.245 206.307 37.775L204.982 41.0345C203.268 40.0628 201.554 39.577 199.841 39.577C198.639 39.577 197.747 39.7713 197.164 40.16C196.599 40.5487 196.316 41.061 196.316 41.697C196.316 42.333 196.643 42.81 197.297 43.128C197.968 43.4283 198.984 43.7287 200.344 44.029C201.757 44.3647 202.915 44.7003 203.816 45.036C204.717 45.3717 205.485 45.9017 206.121 46.626C206.775 47.3503 207.102 48.3308 207.102 49.5675C207.102 50.6275 206.801 51.5992 206.201 52.4825C205.618 53.3482 204.734 54.0372 203.551 54.5495C202.367 55.0618 200.927 55.318 199.231 55.318ZM215.335 55.318C213.869 55.318 212.446 55.1237 211.068 54.735C209.708 54.3287 208.613 53.8075 207.782 53.1715L209.24 49.9385C210.035 50.5215 210.98 50.9897 212.075 51.343C213.171 51.6963 214.266 51.873 215.361 51.873C216.58 51.873 217.481 51.6963 218.064 51.343C218.647 50.972 218.939 50.4862 218.939 49.8855C218.939 49.4438 218.762 49.0817 218.409 48.799C218.073 48.4987 217.632 48.2602 217.084 48.0835C216.554 47.9068 215.83 47.7125 214.911 47.5005C213.498 47.1648 212.34 46.8292 211.439 46.4935C210.538 46.1578 209.761 45.619 209.107 44.877C208.471 44.135 208.153 43.1457 208.153 41.909C208.153 40.8313 208.445 39.8597 209.028 38.994C209.611 38.1107 210.485 37.4128 211.651 36.9005C212.835 36.3882 214.275 36.132 215.971 36.132C217.155 36.132 218.312 36.2733 219.442 36.556C220.573 36.8387 221.562 37.245 222.41 37.775L221.085 41.0345C219.372 40.0628 217.658 39.577 215.944 39.577C214.743 39.577 213.851 39.7713 213.268 40.16C212.703 40.5487 212.42 41.061 212.42 41.697C212.42 42.333 212.747 42.81 213.4 43.128C214.072 43.4283 215.088 43.7287 216.448 44.029C217.861 44.3647 219.018 44.7003 219.919 45.036C220.82 45.3717 221.589 45.9017 222.225 46.626C222.879 47.3503 223.205 48.3308 223.205 49.5675C223.205 50.6275 222.905 51.5992 222.304 52.4825C221.721 53.3482 220.838 54.0372 219.654 54.5495C218.471 55.0618 217.031 55.318 215.335 55.318Z" fill="#262626"/>
<rect x="69" y="3" width="3" height="60" fill="#929292"/>
<g filter="url(#filter0_f_1126_2020)">
<path d="M5.73789 37.0306L53.0933 11.8274L48.3951 2.99976L5.73394 25.7046L5.73789 37.0306Z" fill="#2C2C2C"/>
</g>
<path d="M5.69811 37.0518L53.0933 11.8274L48.3951 2.99976L5.6981 25.7237L5.69811 37.0518Z" fill="url(#paint0_linear_1126_2020)"/>
<path d="M10.9299 59V7.9H21.6399V59H10.9299ZM61.721 7.9V16.02H47.091V59H37.151V16.02H22.521V7.9H61.721Z" fill="#262626"/>
<g filter="url(#filter1_f_1126_2020)">
<path d="M5.55961 25.6276L53.1146 50.937L48.4164 59.7646L5.57545 36.9641L5.55961 25.6276Z" fill="url(#paint1_linear_1126_2020)"/>
</g>
<path d="M5.71947 25.7126L53.1146 50.937L48.4164 59.7646L5.71947 37.0407L5.71947 25.7126Z" fill="url(#paint2_linear_1126_2020)"/>
<defs>
<filter id="filter0_f_1126_2020" x="4.73395" y="1.99976" width="49.3593" height="36.0308" filterUnits="userSpaceOnUse" color-interpolation-filters="sRGB">
<feFlood flood-opacity="0" result="BackgroundImageFix"/>
<feBlend mode="normal" in="SourceGraphic" in2="BackgroundImageFix" result="shape"/>
<feGaussianBlur stdDeviation="0.5" result="effect1_foregroundBlur_1126_2020"/>
</filter>
<filter id="filter1_f_1126_2020" x="4.55963" y="24.6274" width="49.555" height="36.1372" filterUnits="userSpaceOnUse" color-interpolation-filters="sRGB">
<feFlood flood-opacity="0" result="BackgroundImageFix"/>
<feBlend mode="normal" in="SourceGraphic" in2="BackgroundImageFix" result="shape"/>
<feGaussianBlur stdDeviation="0.5" result="effect1_foregroundBlur_1126_2020"/>
</filter>
<linearGradient id="paint0_linear_1126_2020" x1="52.9999" y1="4.5" x2="0.999942" y2="35" gradientUnits="userSpaceOnUse">
<stop offset="0.424273" stop-color="white"/>
<stop offset="1" stop-color="#A9A9A9"/>
</linearGradient>
<linearGradient id="paint1_linear_1126_2020" x1="8" y1="29" x2="48.5" y2="54.5" gradientUnits="userSpaceOnUse">
<stop offset="0.0197563" stop-color="#C4C4C4"/>
<stop offset="0.207702" stop-color="#2C2C2C"/>
</linearGradient>
<linearGradient id="paint2_linear_1126_2020" x1="49.4999" y1="55" x2="3.49994" y2="31.5" gradientUnits="userSpaceOnUse">
<stop offset="0.598854" stop-color="white"/>
<stop offset="1" stop-color="#E7E7E7"/>
</linearGradient>
</defs>
</svg>
