<svg width="66" height="66" viewBox="0 0 66 66" fill="none" xmlns="http://www.w3.org/2000/svg">
<g filter="url(#filter0_f_995_146)">
<path d="M5.73789 37.0306L53.0933 11.8274L48.3951 2.99976L5.73394 25.7046L5.73789 37.0306Z" fill="#2C2C2C"/>
</g>
<path d="M5.69811 37.0518L53.0933 11.8274L48.3951 2.99976L5.6981 25.7237L5.69811 37.0518Z" fill="url(#paint0_linear_995_146)"/>
<path d="M10.9299 59V7.9H21.6399V59H10.9299ZM61.721 7.9V16.02H47.091V59H37.151V16.02H22.521V7.9H61.721Z" fill="#262626"/>
<g filter="url(#filter1_f_995_146)">
<path d="M5.55961 25.6276L53.1146 50.937L48.4164 59.7646L5.57545 36.9641L5.55961 25.6276Z" fill="url(#paint1_linear_995_146)"/>
</g>
<path d="M5.71947 25.7126L53.1146 50.937L48.4164 59.7646L5.71947 37.0407L5.71947 25.7126Z" fill="url(#paint2_linear_995_146)"/>
<defs>
<filter id="filter0_f_995_146" x="4.73395" y="1.99976" width="49.3593" height="36.0308" filterUnits="userSpaceOnUse" color-interpolation-filters="sRGB">
<feFlood flood-opacity="0" result="BackgroundImageFix"/>
<feBlend mode="normal" in="SourceGraphic" in2="BackgroundImageFix" result="shape"/>
<feGaussianBlur stdDeviation="0.5" result="effect1_foregroundBlur_995_146"/>
</filter>
<filter id="filter1_f_995_146" x="4.55963" y="24.6274" width="49.555" height="36.1372" filterUnits="userSpaceOnUse" color-interpolation-filters="sRGB">
<feFlood flood-opacity="0" result="BackgroundImageFix"/>
<feBlend mode="normal" in="SourceGraphic" in2="BackgroundImageFix" result="shape"/>
<feGaussianBlur stdDeviation="0.5" result="effect1_foregroundBlur_995_146"/>
</filter>
<linearGradient id="paint0_linear_995_146" x1="52.9999" y1="4.5" x2="0.999942" y2="35" gradientUnits="userSpaceOnUse">
<stop offset="0.424273" stop-color="white"/>
<stop offset="1" stop-color="#A9A9A9"/>
</linearGradient>
<linearGradient id="paint1_linear_995_146" x1="8" y1="29" x2="48.5" y2="54.5" gradientUnits="userSpaceOnUse">
<stop offset="0.0197563" stop-color="#C4C4C4"/>
<stop offset="0.207702" stop-color="#2C2C2C"/>
</linearGradient>
<linearGradient id="paint2_linear_995_146" x1="49.4999" y1="55" x2="3.49994" y2="31.5" gradientUnits="userSpaceOnUse">
<stop offset="0.598854" stop-color="white"/>
<stop offset="1" stop-color="#E7E7E7"/>
</linearGradient>
</defs>
</svg>
